<?xml version="1.0" encoding="utf-8"?>
<!-- Generator: Adobe Illustrator 19.2.1, SVG Export Plug-In . SVG Version: 6.00 Build 0)  -->
<svg version="1.1" id="layer" xmlns="http://www.w3.org/2000/svg" xmlns:xlink="http://www.w3.org/1999/xlink" x="0px" y="0px"
	 viewBox="0 0 652 652" style="enable-background:new 0 0 652 652;" xml:space="preserve">
<style type="text/css">
	.st0{fill:#232E84;}
	.st1{fill:#FFFFFF;}
	.st2{fill:#EE3524;}
</style>
<rect x="25.2" y="243.7" class="st0" width="600" height="166"/>
<g>
	<path class="st1" d="M92.5,345.7h5.2c5.1,0,11.3-1.3,11.3-7.6c0-7.1-5.8-8.2-11.3-8.2h-5.2V345.7 M92.5,321.7h4.5
		c4.6,0,10.3-1,10.3-6.7c0-6.3-5.6-6.8-10.6-6.8h-4.2V321.7z M81.5,299.6h19.1c7.1,0,17.6,2,17.6,14c0,6.5-4.4,11.1-10.9,12.2v0.2
		c7.4,0.7,12.5,5.7,12.5,12.5c0,13.8-12.4,15.8-19.3,15.8H81.5V299.6z"/>
	<path class="st1" d="M124.8,314h9.3v9.1h0.1c0.5-3.7,4.8-10.1,11.1-10.1c1,0,2.1,0,3.2,0.3v10.6c-0.9-0.6-2.8-0.9-4.7-0.9
		c-8.5,0-8.5,10.7-8.5,16.4v14.8h-10.5V314"/>
	<path class="st1" d="M158.3,296.6c2.7,0,5,2.3,5,5c0,2.8-2.3,5-5,5c-2.7,0-5-2.3-5-5C153.3,298.8,155.5,296.6,158.3,296.6 M153,314
		h10.5v40.4H153V314z"/>
	<path class="st1" d="M175.9,321.6h-7.8l0.8-7.7h7V309l10.5-10.4V314h9.3l-0.8,7.7h-8.5v18.8c0,3.4,0.9,6.6,4.9,6.6
		c1.9,0,3.9-0.4,4.9-1.1l0.2,8.3c-2.2,0.6-4.6,1-7.7,1c-8.2,0-12.8-5.1-12.8-13.1V321.6"/>
	<path class="st1" d="M206.2,296.6c2.7,0,5,2.3,5,5c0,2.8-2.3,5-5,5c-2.7,0-5-2.3-5-5C201.2,298.8,203.5,296.6,206.2,296.6
		 M200.9,314h10.5v40.4h-10.5V314z"/>
	<path class="st1" d="M243.5,322.4c-3.2-1.1-4.8-1.7-8.6-1.7c-2.8,0-6.2,1-6.2,4.5c0,6.4,18.2,2.3,18.2,16.9
		c0,9.4-8.4,13.2-16.9,13.2c-4,0-8.1-0.7-11.9-1.7l1.4-8.6c3.3,1.6,6,2.6,9.5,2.6c2.7,0,6.9-1,6.9-4.9c0-7.9-18.3-2.5-18.3-17.1
		c0-8.7,7.6-12.6,15.8-12.6c4.9,0,8.1,0.8,11.4,1.5L243.5,322.4"/>
	<path class="st1" d="M252.1,299.5l10.5-7.8v27.8h0.2c2.6-3.9,7.2-6.4,12.7-6.4c9.6,0,13.7,6.8,13.7,15.9v25.5h-10.5v-21.5
		c0-5-0.1-11.6-6.8-11.6c-7.6,0-9.2,8.2-9.2,13.4v19.7h-10.5V299.5"/>
	<path class="st2" d="M340.9,327.3c0,5.3-4.3,9.5-9.5,9.5c-5.3,0-9.6-4.3-9.6-9.5c0-5.3,4.3-9.6,9.6-9.6
		C336.6,317.7,340.9,322,340.9,327.3"/>
	<path class="st1" d="M321.8,354.7c3,1,6.2,1.6,9.5,1.6c16,0,29-13,29-29c0-16.1-13-29-29-29c-5.4,0-10.4,1.5-14.7,4v-20.9h-14.2v43
		c-0.1,1-0.2,1.9-0.2,2.9c0,10.7,5.8,20,14.4,25.1c0,0,0,0,0,0v-25v0v-0.1c0-8.1,6.6-14.7,14.7-14.7c8.1,0,14.7,6.6,14.7,14.7
		c0,8.1-6.6,14.7-14.7,14.7c-3.6,0-6.9-1.3-9.5-3.5V354.7z"/>
	<path class="st1" d="M384.8,324.9h3.8c5.5,0,10.4-1.8,10.4-8.1c0-6.4-4.8-8.6-10.4-8.6h-3.8V324.9 M373.8,299.6h13.9
		c11.9,0,22.8,3.4,22.8,16.5c0,12.8-9.3,17.4-21.1,17.4h-4.6v20.8h-11V299.6z"/>
	<path class="st1" d="M423.2,347.6c3.2,0,5.7-1.4,7.3-3.6c1.7-2.3,2.2-5.2,2.2-8.3h-4.6c-4.7,0-11.7,0.8-11.7,7
		C416.6,346.1,419.5,347.6,423.2,347.6 M414.8,316.1c4.1-1.9,9.6-3.1,14-3.1c12.3,0,13.5,5.1,13.5,17v5.2c0,4.1,0.1,7.1,0.2,10.1
		c0.1,3.1,0.5,5.9,0.7,9h-9.5c-0.4-2.1-0.4-4.8-0.5-6h-0.2c-2.4,4.5-7.7,7-12.5,7c-7.1,0-14.1-4.3-14.1-12c0-6,2.9-9.6,6.9-11.5
		c4-1.9,9.2-2.3,13.6-2.3h5.8c0-6.5,1-8.7-5.2-8.7c-4.5,0-8.9,1.7-12.5,4.4L414.8,316.1z"/>
	<path class="st1" d="M456,296.6c2.8,0,5,2.3,5,5c0,2.7-2.3,5-5,5c-2.7,0-5-2.3-5-5C451,298.8,453.2,296.6,456,296.6 M450.7,314
		h10.5v40.4h-10.5V314z"/>
	<path class="st1" d="M469.2,314h9.9v5.5h0.2c3.3-4.6,7.8-6.4,13.3-6.4c9.6,0,13.7,6.8,13.7,15.8v25.5h-10.5v-21.5
		c0-5-0.1-11.6-6.8-11.6c-7.6,0-9.3,8.2-9.3,13.4v19.7h-10.5V314"/>
	<path class="st1" d="M516.6,321.6h-7.8l0.8-7.7h7V309l10.5-10.4V314h9.3l-0.8,7.7h-8.5v18.8c0,3.4,0.9,6.6,4.9,6.6
		c1.9,0,3.8-0.4,4.9-1.1l0.2,8.3c-2.2,0.6-4.6,1-7.7,1c-8.2,0-12.8-5.1-12.8-13.1V321.6"/>
	<path class="st1" d="M565.6,322.4c-3.2-1.1-4.8-1.7-8.6-1.7c-2.8,0-6.2,1-6.2,4.5c0,6.4,18.2,2.3,18.2,16.9
		c0,9.4-8.4,13.2-16.9,13.2c-4,0-8.1-0.7-11.9-1.7l1.4-8.6c3.3,1.6,6,2.6,9.5,2.6c2.7,0,6.9-1,6.9-4.9c0-7.9-18.3-2.5-18.3-17.1
		c0-8.7,7.6-12.6,15.8-12.6c4.9,0,8.1,0.8,11.4,1.5L565.6,322.4"/>
	<path class="st1" d="M572.5,317.9c0-2.7,2.2-4.9,4.9-4.9s4.9,2.2,4.9,4.9c0,2.7-2.2,4.9-4.9,4.9S572.5,320.6,572.5,317.9
		 M571.8,317.9c0,3.1,2.5,5.6,5.6,5.6c3.1,0,5.6-2.5,5.6-5.6c0-3.1-2.5-5.6-5.6-5.6C574.4,312.3,571.8,314.8,571.8,317.9"/>
	<path class="st1" d="M576.3,317.6h1.7c0.7,0,1-0.3,1-0.9c0-0.7-0.5-0.9-1-0.9h-1.7V317.6 M575.2,315h2.8c1.3,0,1.9,0.6,1.9,1.6
		c0,1.1-0.8,1.4-1,1.5v0c0.4,0.1,0.9,0.3,0.9,1.2c0,0.7,0.1,1.3,0.3,1.6h-1.1c-0.2-0.3-0.2-0.6-0.2-0.9c0-1.1-0.2-1.5-1.2-1.5h-1.5
		v2.4h-1V315z"/>
</g>
</svg>
